# xmcd
#
# Track frame offsets: 
#        150
#        14650
#        29479
#        51024
#        63482
#        80322
#        93863
#        108231
#        116764
#        134887
#        149505
#        162989
#        175193
#        185872
#        191670
#        203233
#        210365
#        226284
#        236317
#        253121
#        261307
#
# Disc length: 3604 seconds
#
# Revision: 0
# Processed by: cddbd v1.5.2PL0 Copyright (c) Steve Scherf et al.
# Submitted via: ExactAudioCopy v1.0b3
#
DISCID=360e1215
DTITLE=Алексей Вдовин - Точки На Щеках Весны
DYEAR=2008
DGENRE=Ballad
TTITLE0=Пыль
TTITLE1=Кружите
TTITLE2=Зерна
TTITLE3=Этот День
TTITLE4=Дурак И Счастье
TTITLE5=Стойте, Родные
TTITLE6=На Весу
TTITLE7=Танцуй, Саломея
TTITLE8=Скажи Мне
TTITLE9=Последний Мотив
TTITLE10=К Тебе Одной
TTITLE11=Золотое Созвездье
TTITLE12=Команданте (Original Version)
TTITLE13=Бродяга И Тень
TTITLE14=Звезда-Заступница
TTITLE15=Колыбельная
TTITLE16=Жди
TTITLE17=Ассоль
TTITLE18=Плачь (True Version)
TTITLE19=Романс
TTITLE20=Океан
EXTD=
EXTT0=
EXTT1=
EXTT2=
EXTT3=
EXTT4=
EXTT5=
EXTT6=
EXTT7=
EXTT8=
EXTT9=
EXTT10=
EXTT11=
EXTT12=
EXTT13=
EXTT14=
EXTT15=
EXTT16=
EXTT17=
EXTT18=
EXTT19=
EXTT20=
PLAYORDER=
